<svg xmlns="http://www.w3.org/2000/svg" viewBox="0 0 160 160" role="img" aria-labelledby="title desc">
  <title id="title">KASABUTA Empire Crest</title>
  <desc id="desc">Gold and neon crest for Black Hopeless brand</desc>
  <defs>
    <linearGradient id="g1" x1="0%" x2="100%" y1="0%" y2="100%">
      <stop offset="0%" stop-color="#f6e0a0"/>
      <stop offset="50%" stop-color="#d3b46f"/>
      <stop offset="100%" stop-color="#8a6b2f"/>
    </linearGradient>
    <radialGradient id="glow" cx="50%" cy="50%" r="70%">
      <stop offset="0%" stop-color="rgba(182,123,255,0.55)"/>
      <stop offset="100%" stop-color="rgba(5,7,12,0)"/>
    </radialGradient>
  </defs>
  <rect width="160" height="160" rx="24" fill="#0a0f1b"/>
  <rect width="160" height="160" rx="24" fill="url(#glow)"/>
  <g stroke="url(#g1)" stroke-width="3" fill="none" stroke-linecap="round" stroke-linejoin="round">
    <path d="M40 60 L80 32 L120 60 L120 100 L80 128 L40 100 Z" fill="rgba(10,12,20,0.5)"/>
    <path d="M54 70 L80 50 L106 70 L106 92 L80 112 L54 92 Z"/>
    <path d="M70 76 L90 76 L90 96 L70 96 Z"/>
    <path d="M52 118 C70 132, 90 132, 108 118" opacity="0.7"/>
    <path d="M34 86 C30 70, 30 50, 40 40" opacity="0.5"/>
    <path d="M126 86 C130 70, 130 50, 120 40" opacity="0.5"/>
  </g>
  <text x="80" y="148" fill="url(#g1)" font-family="Cinzel, serif" font-size="16" text-anchor="middle" letter-spacing="4">K3</text>
</svg>
